#!OML:ASF X:\für Bonn\!DataBase\2005_08_10_Bjorn_Final\c3d\bjorn.ASF
:FULLY-SPECIFIED
:DEGREES
211
root 3.54348 9.46126 -0.417115 251.463 -269.151 -458.981
lowerback 38.3866 -3.38101 6.95191
upperback 18.6951 1.46668 6.99216
thorax 1.72656 2.03412 3.37245
lowerneck -10.8037 0.950441 5.86222
upperneck -2.63607 0.941026 -12.4972
head 1.09545 0.291655 -4.70562
rclavicle -5.725e-014 -3.33958e-014
rhumerus -1.76281 -21.9461 -75.708
rradius 21.7025
rwrist 27.6399
rhand -43.1023 33.9797
rfingers 7.12502
rthumb -15.9569 4.61702
lclavicle -5.725e-014 -3.33958e-014
lhumerus -1.62971 -53.9917 58.004
lradius 48.8136
lwrist -4.55999
lhand -22.4016 -10.739
lfingers 7.12502
lthumb 4.02099 19.2028
rfemur -60.7793 -56.12 -15.8171
rtibia 142.956
rfoot -26.0147 66.7901
rtoes -3.53165
lfemur -70.3608 51.5626 -10.3539
ltibia 145.185
lfoot -36.0645 -20.0211
ltoes -39.5621
212
root 3.55306 9.60125 -0.416586 243.082 -269.125 -467.707
lowerback 37.908 -3.1988 6.88183
upperback 18.4304 1.53908 6.93661
thorax 1.57578 2.03203 3.31122
lowerneck -10.9844 0.991392 5.95011
upperneck -2.3916 1.00321 -12.6388
head 1.20474 0.306939 -4.76196
rclavicle 5.725e-014 -3.18055e-015
rhumerus -2.02336 -21.8786 -75.8216
rradius 21.8858
rwrist 27.0164
rhand -41.9681 32.7007
rfingers 7.12502
rthumb -14.8644 3.2539
lclavicle 5.725e-014 -3.18055e-015
lhumerus -2.89409 -54.2445 58.7126
lradius 48.9927
lwrist -4.19299
lhand -22.5299 -10.4043
lfingers 7.12502
lthumb 3.89707 19.5398
rfemur -62.3213 -52.6956 -12.6916
rtibia 141.986
rfoot -23.9605 64.9293
rtoes -3.13294
lfemur -70.4674 48.594 -11.3431
ltibia 144.183
lfoot -35.1554 -19.1355
ltoes -39.3968
213
root 3.56413 9.74258 -0.416081 233.767 -269.1 -477.379
lowerback 37.3983 -3.02078 6.8399
upperback 18.161 1.61221 6.87495
thorax 1.43479 2.03239 3.23004
lowerneck -11.112 1.01667 6.05293
upperneck -2.19534 1.04008 -12.7818
head 1.28923 0.312261 -4.82234
rclavicle -2.06736e-014 4.45278e-014
rhumerus -2.29266 -21.732 -75.9429
rradius 22.108
rwrist 26.3174
rhand -40.7986 31.2686
rfingers 7.12502
rthumb -13.7375 1.74208
lclavicle -2.06736e-014 4.45278e-014
lhumerus -4.21972 -54.4681 59.4677
lradius 49.1397
lwrist -3.91351
lhand -22.7178 -10.1406
lfingers 7.12502
lthumb 3.71561 19.8068
rfemur -63.4052 -49.3201 -10.0164
rtibia 140.99
rfoot -22.3988 63.065
rtoes -2.7054
lfemur -70.4453 45.8821 -12.1262
ltibia 143.174
lfoot -34.3887 -18.2004
ltoes -39.441
214
root 3.57572 9.88545 -0.415028 223.894 -269.031 -487.617
lowerback 36.8866 -2.82125 6.77283
upperback 17.8816 1.70459 6.82395
thorax 1.28489 2.03884 3.16756
lowerneck -11.2314 1.03686 6.13534
upperneck -2.01093 1.0736 -12.9489
head 1.36903 0.316422 -4.887
rclavicle -7.95139e-014 -8.11041e-014
rhumerus -2.58173 -21.533 -76.0268
rradius 22.3551
rwrist 25.6545
rhand -39.5885 29.7904
rfingers 7.12502
rthumb -12.5711 0.188642
lclavicle -7.95139e-014 -8.11041e-014
lhumerus -5.61695 -54.7135 60.31
lradius 49.3086
lwrist -3.60365
lhand -22.9451 -9.94167
lfingers 7.12502
lthumb 3.49616 20.0094
rfemur -64.2283 -45.9491 -7.66928
rtibia 139.988
rfoot -21.2145 61.1482
rtoes -2.39638
lfemur -70.3199 43.4354 -12.7872
ltibia 142.142
lfoot -33.692 -17.3838
ltoes -39.3097
215
root 3.5872 10.0291 -0.414378 217.109 -268.949 -494.738
lowerback 36.3754 -2.64056 6.71511
upperback 17.6087 1.78108 6.75565
thorax 1.14737 2.04089 3.0887
lowerneck -11.3782 1.06094 6.23208
upperneck -1.77958 1.11378 -13.12
head 1.46794 0.32108 -4.95528
rclavicle 2.8625e-014 9.54166e-015
rhumerus -2.87531 -21.2235 -76.1111
rradius 22.6453
rwrist 24.7746
rhand -38.3055 28.1735
rfingers 7.12502
rthumb -11.3339 -1.50029
lclavicle 2.8625e-014 9.54166e-015
lhumerus -7.06138 -54.8613 61.2073
lradius 49.4792
lwrist -3.39487
lhand -23.1622 -9.79397
lfingers 7.12502
lthumb 3.28647 20.1604
rfemur -64.6978 -42.7827 -5.71518
rtibia 138.964
rfoot -20.4982 59.2943
rtoes -2.12584
lfemur -70.0638 41.1154 -13.34
ltibia 141.098
lfoot -33.0961 -16.5448
ltoes -39.285
